<svg id="Layer_1" data-name="Layer 1" xmlns="http://www.w3.org/2000/svg" viewBox="0 0 3873.12 3872.77"><defs><style>.cls-1{fill:#ff4646;}.cls-1,.cls-2{fill-rule:evenodd;}.cls-2{fill:#353535;}</style></defs><title>hammer-icon</title><path class="cls-1" d="M1385.7,532.54l621.39,621.39a45.29,45.29,0,0,1,0,64.16L1218,2007.21a45.27,45.27,0,0,1-64.16,0L532.41,1385.8a45.34,45.34,0,0,1,0-64.16l789.12-789.1a45.32,45.32,0,0,1,64.17,0ZM1185.91,2279.76,2279.64,1186,1721.57,627.94,1353.63,260,259.89,1353.72Z" transform="translate(-0.03 -0.12)"/><polygon class="cls-1" points="1910.77 1185.88 1353.55 628.66 628.67 1353.6 1185.88 1910.81 1910.77 1185.88"/><path class="cls-1" d="M1099.13,2321.35l-881-881-72.82,253.2c-18.56,59.57-24,86-2.71,107.19L737.81,2396c30.64,30.56,88.16,2.8,138.67-11.58Z" transform="translate(-0.03 -0.12)"/><path class="cls-1" d="M1440.23,218.24l881,881,72.15-252.89c18.65-60.13,24.1-86.8,2.49-108.39L1800.66,142.7c-30-30-86.89-2.64-136.46,11.57Z" transform="translate(-0.03 -0.12)"/><polygon class="cls-1" points="517.13 967.9 967.91 517.15 876.94 426.21 803.44 499.73 802.21 501.02 501.01 802.21 499.75 803.41 426.2 876.98 517.13 967.9"/><path class="cls-1" d="M469,706.06,706,469c-51.58-51.59-87.56-99.44-169.13-99.44-149.31,0-223.45,180.94-118.5,285.86Z" transform="translate(-0.03 -0.12)"/><path class="cls-1" d="M1915.47,1678.56l-237,237,479.37,479.38c10.5-118.38,101.67-227,237.07-236.94Z" transform="translate(-0.03 -0.12)"/><path class="cls-1" d="M2415.29,2248c-148.92,0-223.13,180.06-119.21,285.17l699.71,699.69c154.55,153.47,394.2-79.75,236.39-237.56l-698.45-698.45A166.26,166.26,0,0,0,2415.29,2248Z" transform="translate(-0.03 -0.12)"/><path class="cls-1" d="M3371.09,3134.21c-10.5,118.38-101.63,227-237,236.94l400.2,400.2c154.64,154.62,394.92-79.07,237-237Z" transform="translate(-0.03 -0.12)"/><path class="cls-2" d="M3614.71,3872.89c-69.13,0-134-26.78-182.68-75.41l-536.12-536.15-2.92-2.86L2194.53,2560l-2.61-2.71-615.67-615.65L1181.11,2336.8a44.32,44.32,0,0,1-13.86,10.12l-.5.25-1,.43-.51.22-.49.21h0l-.51.19-.51.21-.43.16-.09,0-.53.18-.52.19-.37.12-.15,0-.54.15-.52.19-.33.09-.21.06-.53.13c-40.13,11.45-372.2,113-425,113-38.68,0-72-13.67-98.91-40.6L40.38,1826.9c-70.21-70.18-31.64-155.41-11.55-225.57l84.66-296.25a44.45,44.45,0,0,1,5.51-13.24l.12-.2.6-1,.07-.11.56-.83.05-.06a44.47,44.47,0,0,1,5.49-6.47L413.54,995.59C370.39,955.7,319.82,899,291.93,871.13a45.34,45.34,0,0,1,0-64.16l73.56-73.55c-17.17-17.42-34.35-36.83-49.41-51.89-161-161-48.53-440.76,182.71-440.76,110.13,0,167.71,57.81,233.63,125.72L806.89,292a45.29,45.29,0,0,1,64.16,0c28,28,84.63,78.51,124.46,121.58l287.77-287.77a44.89,44.89,0,0,1,19.83-11.7c37.06-10.6,372-114,425.45-114,38.41,0,71.49,13.58,98.28,40.36L2422,635.69c70.82,70.81,31.61,156.93,11.57,227.57l-84.12,297.09a45,45,0,0,1-13.51,21.56l-394.35,394.37L3797.42,3432.09c161.92,161.94,47.12,440.8-182.71,440.8ZM2241.6,1148,1683.51,589.88,1315.57,222,221.83,1315.67l926,926L2241.6,1148ZM1402.17,180.19l881,881,72.15-252.9c18.65-60.13,24.1-86.8,2.49-108.39L1762.6,104.64c-30-30-86.89-2.62-136.46,11.57l-224,64ZM180.09,1402.31,107.28,1655.5c-18.57,59.56-24,85.94-2.72,107.18l595.2,595.23c30.64,30.57,88.17,2.8,138.68-11.57l222.63-63-881-881Zm967.78,580.15a45.39,45.39,0,0,0,32.09-13.29L1969,1180a45.29,45.29,0,0,0,0-64.16l-621.4-621.39a45.31,45.31,0,0,0-64.16,0l-789.11,789.1a45.33,45.33,0,0,0,0,64.16l621.41,621.43a45.33,45.33,0,0,0,32.09,13.29ZM590.65,1315.67l557.22,557.22L1872.76,1148,1315.54,590.73,590.65,1315.67ZM430.9,668l237-237c-51.6-51.59-87.57-99.44-169.15-99.44-149.3,0-223.43,180.94-118.5,285.87L430.9,668Zm-42.72,171L479.1,930,929.89,479.21l-91-90.92L765.42,461.8l-1.24,1.28L463,764.29l-1.26,1.2-73.56,73.57ZM2119.8,2356.9c10.5-118.38,101.64-227,237.07-236.94L1877.43,1640.5l-237,237L2119.8,2356.9Zm1213.25,739.23c-10.5,118.41-101.64,227-237,237l400.2,400.2c154.64,154.62,394.92-79.08,237-237l-400.16-400.2ZM2377.24,2210c-148.91,0-223.15,180.06-119.21,285.14l699.72,699.71c154.54,153.47,394.19-79.75,236.39-237.55l-698.46-698.46A166.13,166.13,0,0,0,2377.24,2210Z" transform="translate(-0.03 -0.12)"/></svg>