<svg id="DESIGN" xmlns="http://www.w3.org/2000/svg" xmlns:xlink="http://www.w3.org/1999/xlink" viewBox="0 0 2849.55 3820"><defs><style>.cls-1{fill:url(#New_Gradient_Swatch);}</style><linearGradient id="New_Gradient_Swatch" x1="2400" y1="-267.86" x2="2400" y2="5194.02" gradientUnits="userSpaceOnUse"><stop offset="0" stop-color="#ed1c24"/><stop offset="1" stop-color="#c1272d"/></linearGradient></defs><title>logo</title><path class="cls-1" d="M3815.11,1544.66c-18.17-137.93-69.24-271-145.75-387-69.82-106.78-158.69-199.87-255.12-282.92C3300.7,777.94,3171.38,700.7,3035.48,639.6c-37.29-18.64-76.55-32.71-115.15-48.27-31.76-13.19-65-22.31-97.59-33.33-32.74-11.45-66.84-18.35-100.35-27.15-36-9.92-73.2-14.57-109.84-21.7-30.56-5.85-61.75-7.7-92.61-11.48-42.85-5.63-86.14-4.73-129.17-7.67h-22c-46.48,2.14-93.08,1.42-139.42,6.51-119.36,8-238.69,26.13-352.92,62.51-126.67,40-245.23,103.48-352.42,181.55-83.56,56.37-156.87,126.12-229,196-66.73,66.77-131.87,135.31-191.58,208.48-22.21,28.1-45,56.26-61,88.5-17.81,43.18-27.29,89.16-39.69,134.08-10,43.87-21.37,87.74-24.1,132.85-1.74,29.59-1.67,59.25-3.38,88.87v189.69c1.78,103.33-1.92,207.57,16.61,309.74,12.58,71.53,27.7,143.5,57.21,210.23,31,71,79.06,132.55,128.23,191.73,21.67,28.2,46.31,54.37,63.94,85.45-26.39,25.62-62.85,36.56-93,56.66-13.42,9.34-16.76,26.61-17.34,41.91-1.24,36-2,72.18-4.94,108.16-1.57,21.56-18.36,39.59-14.47,61.94,2.91,32.35,12.76,63.61,24.1,93.92,16.72,44,38,87.74,71.53,121.43,21,21.45,52.77,37.07,83,26.79,37.94-14.47,69.64-41.51,107-57.1,9.92-4.91,20.75-.8,30,3.6,27.73,13.59,52.81,31.87,80.22,46.08,21.59,11.13,48.56,17.49,71.16,5.49,17.56-9.52,34.46-22.64,44.16-40.38,5.53-8.83-1.34-19.08-9.88-22.46-27.73-12.5-59.32-8.87-88.07-17.37-12.83-3.13-16-19.92-8.72-29.66,12.43-17.7,30.53-30.32,47.14-43.76,57.79-43.44,118.12-84.51,184.71-113.3,25.44-9.52,50.85-20.31,78-23.84,22-2.72,42.89,7.85,60.92,19.3,10,6.11,17.12,19.48,10.65,30.6-7.38,13.16-19.3,24.65-20.32,40.57-4.25,35.62,14.79,67.46,28.38,98.82,7.53,14.18-4.57,27-11.59,38.42-15.63,23-18.94,52.56-12.43,79.24,10.61,43.58,23.84,87,45.22,126.63,5.88,10.76,8.57,22.86,9.45,35,2.43,34,4.68,67.94,4.79,102q3.33,174.57,6.69,349.14c1.67,66.51,1.49,133.14,5.16,199.61,4.07,78.91,4.84,158.36,19.16,236.29,4.94,24.61,10.83,50.52,27.66,70.08,20.79,24.35,50.15,40.74,81.08,48.26,18.36,3.86,40.6,5.6,56-7.19,4.65-10.83,4-23,5.09-34.53,5.92-135.61,4.61-271.44,6.21-407.15,1.24-86.07-.22-172.18-.76-258.28-.87-105.4-.87-210.84-5.53-316.18-.8-13-.91-26.2-5.23-38.56-1.78-7.27-7.49-15.74-1.27-22.39,4.36-5.6,16.43-13.08,20-3.2,8.36,29.12,9.93,59.65,13.85,89.56,11.52,90.47,15.23,181.73,17.34,272.81,3.38,224.15,1.71,448.34,4.8,672.49,1.78,28.67.62,57.68,6.58,86,21.51,8.84,45.1,6.62,67.82,7.16,26.79.26,53.65-.21,80.32-2.83,10.33-1.2,23.34-4.25,26.79-15.52,7.27-23.08,5.42-47.61,6.87-71.39q2.23-101.67,2.65-203.35c.88-167.23,1.93-334.46,2.22-501.69q.06-138.21,2.51-276.38c2.18-25.41,1-51.28,6-76.33,1.45-13,17.34-10.75,26.31-7.92,10.4,2.47,10.84,14.87,12.4,23.48,6.58,80.73,5.63,161.81,7.6,242.76,2.07,221.67,3.37,443.35,6.43,665,2,60,1.45,120.52,11.41,179.95,2.65,14.75,5.93,32.75,20.5,40.45,14.14,4.73,29.4,4.14,44.16,5H2536c8.69-1.31,20.06-1.34,24.21-10.72,14.21-29.44,17.55-62.59,23.37-94.39,23.15-133.47,30.71-268.89,38.24-403.92,3-78.62,6.54-157.31,5.37-236,.73-76.47-3.38-152.87-5.85-229.27-2.58-63-6.61-125.9-6.21-189,.51-13.13,1.05-28.68,12.32-37.51,22.35-20,58.44-21.05,82.32-3.09,6.29,5.09,14.8,10.21,16,18.93-5.78,12.43-16.28,21.59-25.33,31.62-13.85,14.62-26.1,31.12-33.69,49.91-10.36,23.4-9.31,49.57-11.34,74.58-4,141.82-.84,283.72-1.28,425.58.22,125.9,1.82,251.81,2.87,377.71,1.5,55.72,1.5,111.55,4.15,167.27,1.74,15.63.54,32.78,8.9,46.77,11,5,23.74,2.22,35.33.88,33.22-6.33,66.15-15.89,96.5-31,15.34-7,22.35-23.22,26.93-38.34,22.07-74.77,31.52-152.37,41.84-229.38a4119.18,4119.18,0,0,0,29-475.52c.91-64.88-2.87-131,14.39-194.31,29.48-103.55,69.35-204.74,85.16-311.71,5.71-31.22,4.87-63.09,7.2-94.61,1.6-18.24-.55-37.65,7.09-54.77,5.48-7.09,14.79-9.67,22.46-13.78,31.22-13.88,62.59-27.69,95.12-38.27,43.87-15.59,92.17-29.26,138.59-17,35.36,12.8,68.4,40,79.12,77.17,7,25.18,1.06,51.57-8.61,75.2-10.94,27.26-20.14,58.7-8.8,87.37,8.54,21.48,31.62,33,53.65,34.71,29.18,4.07,57.32-7.45,83.3-19.26,57.32-29,107.23-71.35,148.84-120,33.59-41.18,63.94-88,73-141.24,7.45-43.29-13.23-83.82-31.52-121.51-14.83-28.89-12.94-62.48-7.41-93.52,12.61-72.25,32.2-143,48.3-214.51,33.73-146.62,71.21-292.37,100.83-439.9,14.54-72.51,21.66-146.3,24.39-220.12v-24.82C3823.69,1635,3821.8,1589.55,3815.11,1544.66Zm-1771.41,865c-53.21,13.26-107.81,29.51-163.2,21.59-105.58-11.09-209.68-32.75-312.9-56.92-34.28-8.18-68.26-17.63-102.17-27.19-30.13-10.36-61.65-17.63-89.71-33.15-30.13-18.9-53.06-47-72.83-76.18-40.89-62.59-67.28-133.57-85.31-205.79-11.81-51.43-20.1-104.86-12.94-157.53,3.49-21.48,9.71-45,27.88-58.8,5.56-4.37,12.87-.59,18.9.72,42.27,13.74,82.18,33.59,122.38,52.34,177,86.32,350.38,179.77,524.91,270.93q151.39,79.42,302.84,158.79c15.41,9.38,33.55,17,43.18,33.19-6.69,5.09-13.41,10.21-21.05,13.74C2166,2372.74,2104.72,2391.39,2043.7,2409.67Zm314.5,184.64c-19.3,58.88-41.29,116.85-63.79,174.57-9.12,21.3-14,45.1-29.55,63-6.39-3.19-12.46-7.16-16.64-13-19-24.5-36.24-50.81-48.52-79.38-6.18-12.54.36-26.06,6.68-37.07,16.47-27.23,33.81-53.94,50-81.31q32.43-59.91,64.22-120.2a419.94,419.94,0,0,1,25.91-40c5.71-7.12,14.14-15.77,24.25-12.72,10.5,4.11,12.46,16.68,12.43,26.61C2382.66,2515.94,2368.42,2554.94,2358.2,2594.31Zm236.29,168.83c-13.34,29.69-26.32,60.69-48.2,85.26-13.12-10.83-18.13-27.55-24.17-42.74-11-31.84-22.53-63.9-40.7-92.5-10.22-18.72-26.1-35.22-28.65-57.25-3.88-38.63-.47-77.52,1.93-116.12,1.09-14.83,1.09-30.71,9.78-43.47,13.7,8.1,23.55,20.79,33.33,33,26.64,35,49.65,72.69,71,111.11,13.12,25,27.08,50,34.27,77.45C2607.94,2733.44,2600.05,2748.89,2594.49,2763.14Zm1005.16-786.47c-2.44,34.17-13.38,66.92-23.3,99.48-18.17,55.21-35.73,111.15-64,162.22-13.92,21.81-28.71,43.9-50.12,59.1-43.14,31.8-95.48,46.7-146,62-97.26,29.81-197.87,46.56-298.48,60.23-69.67,9.81-141.2,21.52-211,6.29-66.34-14.5-131.36-35.33-193.33-63.06-17-9.13-36.17-15.41-49.65-29.77,30.86-22.94,66.41-38.27,100.28-56.08,56.77-29.48,114.67-56.85,170.65-87.85,141.09-74.95,268.49-172.61,408.64-249.16,62.26-35.8,127.61-66.69,196.16-88.39,32-10.8,64.8-19.26,98.28-24,15.81-1.49,32.27-1.71,47.61,2.91,12.07,5.89,11.78,21.55,13.16,33.07C3600.19,1901.29,3602.37,1939.06,3599.65,1976.67Z" transform="translate(-975.22 -490)"/></svg>